<?xml version="1.0" encoding="utf-8"?>
<!-- Generator: Adobe Illustrator 16.2.0, SVG Export Plug-In . SVG Version: 6.00 Build 0)  -->
<!DOCTYPE svg PUBLIC "-//W3C//DTD SVG 1.1//EN" "http://www.w3.org/Graphics/SVG/1.1/DTD/svg11.dtd">
<svg version="1.1" id="Layer_1" xmlns="http://www.w3.org/2000/svg" xmlns:xlink="http://www.w3.org/1999/xlink" x="0px" y="0px"
	 width="1921.307px" height="143.993px" viewBox="0 0 1921.307 143.993" enable-background="new 0 0 1921.307 143.993"
	 xml:space="preserve">
<g>
	<g>
		<path fill="#C3CED2" d="M969.154,126.106c0,11.287-0.08,22.575,0.082,33.934c0,1.633-0.404,2.342-2.344,1.987
			c-0.404-0.071-0.729,0-1.131,0c-321.72,0-643.521,0-965.159,0c-0.808-6.389,0.243-12.85-0.485-19.168
			c-0.646-6.176,1.293-9.938,7.839-13.487c13.172-7.028,21.334-17.96,25.052-31.235c0.89-3.124,1.293-6.461,5.98-7.171
			c1.212-0.213,1.456-1.703,1.94-2.698c2.263-4.116,4.607-8.092,8.97-10.932c9.94-6.248,23.032-3.975,29.335,5.11
			c1.455,2.06,2.827,4.189,3.879,6.461c0.727,1.49,1.697,2.697,3.717,2.91c2.101,0.214,2.748,1.49,3.151,3.195
			c2.909,13.914,11.153,24.988,23.679,33.649c1.212,0.852,2.424,1.561,3.798,2.201c2.424,1.276,4.606,2.413,5.738-1.279
			c0.404-1.277,2.021-1.987,3.555-2.271c1.94-0.355,2.749-1.207,2.749-2.982c-0.082-8.093,0.242-16.185-0.162-24.278
			c-0.081-2.271-0.323-4.614-1.94-6.674c-1.455-1.774,0-3.123,1.456-4.258c2.585-1.989,5.333-3.692,8.081-5.468
			c12.445-7.808,24.971-15.476,37.417-23.142c5.091-3.125,5.819-3.195,10.991,0.141c11.071,7.17,22.466,13.844,33.699,20.943
			c1.455,0.922,2.748,1.917,4.445,2.556c1.05-1.208,0.566-2.414,0.566-3.621c0.081-9.3,0-18.6,0-27.899
			c0-5.253,1.131-6.248,7.111-6.248c44.286,0,88.492,0,132.778,0c6.142,0,7.192,0.924,7.192,6.461c0,13.204,0,26.338,0,39.543
			c0,4.542,0.646,5.04,5.818,3.903c15.759-3.621,25.214-12.777,29.659-26.194c1.212-3.479,2.021-7.029,2.181-10.72
			c0.162-7.242,4.931-12.14,11.719-15.619c9.051-4.756,26.911-5.396,37.336,3.764c4.525,3.975,5.818,8.873,6.384,14.126
			c1.212,10.436,5.091,19.877,14.384,26.976c6.708,5.111,14.547,7.81,23.355,8.591c2.021,0.142,2.748-0.64,2.748-2.2
			c0-1.42,0-2.911,0-4.331c-0.081-16.754,0.566-33.437-0.566-50.12c-0.161-4.259,1.051-8.519,0.485-12.776
			c-0.323-2.344,1.697-3.054,3.879-3.054c2.425,0,5.253-0.567,6.223,2.414c0.162,0.426,0.081,0.852,0.081,1.35
			c0.404,6.104,0.404,6.104,7.597,6.104c7.354,0,14.626,0,21.98,0c4.931,0,5.334-0.213,4.931-4.544
			c-0.404-4.473,1.292-5.892,7.677-5.253c1.697,0.213,2.828,1.064,2.667,2.627c-0.323,3.407,0.485,6.886,0.242,10.293
			c-0.323,4.686-0.242,4.828,5.253,4.828c12.769,0,25.457,0,38.225,0c1.778,0,3.557-0.071,5.334,0.07
			c3.556,0.284,4.526,1.207,4.283,4.189c-0.889,12.067,0.082,24.136-0.565,36.205c-0.081,1.772,0.808,2.342,2.667,2.413
			c1.939,0.07,3.798-0.213,5.656-0.284c2.182-0.142,4.283-0.071,5.899,1.562c1.293,1.35,2.505,0.64,3.637-0.07
			c2.586-1.563,5.253-3.123,7.758-4.757c10.264-6.673,20.931-12.777,31.113-19.451c5.819-3.763,6.869-3.763,12.688-0.071
			c14.386,9.157,29.174,17.89,43.478,27.119c2.424,1.562,3.637,3.052,2.344,5.82c-1.374,3.052-0.485,3.763,3.232,3.267
			c17.213-2.485,30.628-15.05,33.457-31.236c0.646-3.834,0.646-7.739,1.293-11.571c0.404-2.343,1.212-4.188,4.605-3.479
			c1.616,0.354,2.263-0.71,2.909-1.634c3.072-3.762,6.708-6.956,11.477-8.945c1.454-0.637,2.343-1.561,2.585-3.052
			c0.324-2.555,2.183-4.473,3.476-6.602c1.293-2.201,4.202-2.059,5.172,0.283c0.969,2.343,3.151,4.33,3.233,7.028
			c0,1.421,1.454,1.987,2.747,2.485c4.203,1.846,7.436,4.542,10.102,7.879c1.051,1.351,2.102,2.414,4.202,2.272
			c1.697-0.071,2.991,0.852,3.233,2.344c0.404,2.412,1.374,4.685,1.535,7.169c1.131,20.091,15.112,34.004,37.66,37.554
			c4.93,0.78,5.414,1.278,5.414,5.608c0.081,8.874,0,17.677,0,26.977c1.454-0.852,1.94-1.917,2.667-2.84
			c9.536-12.777,18.91-25.627,28.689-38.335c0.808-0.993,1.535-2.058,1.535-3.337c0-2.342,1.616-3.052,3.96-3.124
			c12.849-0.141,25.698-0.07,38.547,0c2.506,0,4.041,0.782,3.96,3.338c-0.162,2.484,1.454,4.4,2.909,6.388
			c5.818,8.094,12.203,15.761,17.94,23.854C966.004,120.214,968.104,122.912,969.154,126.106z"/>
	</g>
</g>
<g>
	<g>
		<path fill="#C3CED2" d="M1921.307,124.961c0,11.646-0.08,23.293,0.082,35.012c0,1.686-0.404,2.418-2.344,2.052
			c-0.404-0.073-0.727,0-1.131,0c-321.691,0-643.464,0-965.073,0c-0.808-6.593,0.242-13.258-0.485-19.778
			c-0.646-6.372,1.292-10.253,7.838-13.915c13.171-7.253,21.333-18.532,25.05-32.229c0.889-3.224,1.293-6.666,5.979-7.398
			c1.213-0.221,1.455-1.758,1.94-2.784c2.263-4.248,4.605-8.35,8.97-11.279c9.939-6.446,23.029-4.102,29.332,5.273
			c1.455,2.125,2.828,4.322,3.879,6.665c0.728,1.539,1.697,2.783,3.718,3.003c2.101,0.222,2.747,1.538,3.15,3.297
			c2.909,14.356,11.151,25.783,23.677,34.72c1.213,0.879,2.424,1.611,3.798,2.271c2.425,1.318,4.606,2.491,5.737-1.319
			c0.404-1.317,2.021-2.05,3.556-2.343c1.939-0.367,2.747-1.245,2.747-3.076c-0.08-8.351,0.243-16.7-0.162-25.052
			c-0.08-2.343-0.323-4.761-1.938-6.886c-1.455-1.831,0-3.222,1.455-4.394c2.585-2.052,5.333-3.81,8.079-5.641
			c12.445-8.057,24.97-15.969,37.414-23.879c5.091-3.223,5.818-3.296,10.99,0.146c11.07,7.398,22.464,14.284,33.695,21.609
			c1.455,0.95,2.748,1.977,4.445,2.636c1.051-1.246,0.565-2.49,0.565-3.734c0.081-9.596,0-19.191,0-28.787
			c0-5.421,1.132-6.447,7.11-6.447c44.282,0,88.484,0,132.766,0c6.143,0,7.191,0.953,7.191,6.666c0,13.625,0,27.176,0,40.8
			c0,4.688,0.646,5.2,5.818,4.028c15.758-3.736,25.212-13.185,29.656-27.027c1.213-3.591,2.021-7.253,2.182-11.062
			c0.162-7.473,4.93-12.525,11.717-16.115c9.051-4.907,26.91-5.566,37.334,3.884c4.524,4.102,5.817,9.154,6.383,14.575
			c1.213,10.768,5.091,20.509,14.383,27.835c6.707,5.272,14.547,8.057,23.354,8.862c2.021,0.146,2.747-0.66,2.747-2.271
			c0-1.465,0-3.003,0-4.468c-0.08-17.287,0.565-34.5-0.566-51.714c-0.16-4.396,1.051-8.79,0.486-13.184
			c-0.324-2.418,1.695-3.15,3.878-3.15c2.425,0,5.252-0.586,6.222,2.491c0.162,0.438,0.082,0.878,0.082,1.392
			c0.403,6.299,0.403,6.299,7.595,6.299c7.354,0,14.626,0,21.979,0c4.93,0,5.334-0.22,4.93-4.688
			c-0.404-4.616,1.293-6.08,7.676-5.421c1.697,0.22,2.828,1.098,2.667,2.711c-0.323,3.515,0.485,7.104,0.242,10.62
			c-0.323,4.834-0.242,4.981,5.253,4.981c12.768,0,25.454,0,38.221,0c1.778,0,3.557-0.073,5.334,0.073
			c3.555,0.293,4.525,1.244,4.282,4.321c-0.889,12.452,0.081,24.904-0.565,37.356c-0.081,1.831,0.809,2.417,2.667,2.49
			c1.938,0.072,3.798-0.22,5.655-0.294c2.183-0.146,4.283-0.072,5.9,1.613c1.293,1.392,2.504,0.659,3.636-0.073
			c2.586-1.612,5.253-3.224,7.757-4.909c10.263-6.884,20.93-13.184,31.111-20.069c5.818-3.882,6.868-3.882,12.686-0.073
			c14.385,9.449,29.172,18.459,43.475,27.981c2.424,1.611,3.637,3.149,2.344,6.007c-1.374,3.148-0.484,3.881,3.232,3.369
			c17.211-2.564,30.625-15.529,33.454-32.229c0.646-3.956,0.646-7.984,1.292-11.938c0.404-2.418,1.213-4.323,4.605-3.591
			c1.617,0.367,2.263-0.732,2.909-1.685c3.071-3.881,6.707-7.178,11.476-9.229c1.454-0.658,2.343-1.611,2.585-3.148
			c0.323-2.638,2.183-4.615,3.475-6.813c1.294-2.271,4.202-2.124,5.173,0.292c0.969,2.418,3.15,4.468,3.232,7.253
			c0,1.464,1.454,2.05,2.746,2.563c4.203,1.905,7.436,4.688,10.102,8.132c1.051,1.392,2.102,2.488,4.201,2.343
			c1.697-0.072,2.99,0.879,3.232,2.418c0.404,2.49,1.375,4.835,1.535,7.398c1.132,20.729,15.111,35.084,37.656,38.747
			c4.93,0.806,5.414,1.319,5.414,5.787c0.081,9.156,0,18.238,0,27.834c1.454-0.879,1.939-1.978,2.666-2.93
			c9.535-13.185,18.909-26.442,28.688-39.555c0.808-1.024,1.535-2.123,1.535-3.442c0-2.417,1.615-3.148,3.959-3.224
			c12.85-0.146,25.697-0.072,38.545,0c2.506,0,4.04,0.807,3.959,3.444c-0.161,2.564,1.455,4.541,2.909,6.591
			c5.819,8.352,12.202,16.262,17.939,24.612C1918.156,118.881,1920.256,121.665,1921.307,124.961z"/>
	</g>
</g>
</svg>
