<?xml version="1.0" encoding="utf-8"?>
<!-- Generator: Adobe Illustrator 16.2.0, SVG Export Plug-In . SVG Version: 6.00 Build 0)  -->
<!DOCTYPE svg PUBLIC "-//W3C//DTD SVG 1.1//EN" "http://www.w3.org/Graphics/SVG/1.1/DTD/svg11.dtd">
<svg version="1.1" id="Layer_1" xmlns="http://www.w3.org/2000/svg" xmlns:xlink="http://www.w3.org/1999/xlink" x="0px" y="0px"
	 width="1921.307px" height="285.909px" viewBox="0 0 1921.307 285.909" enable-background="new 0 0 1921.307 285.909"
	 xml:space="preserve">
<g>
	<g>
		<path fill="#C3CED2" d="M969.154,149.558c0,15.898-0.08,31.799,0.081,47.797c0,2.301-0.403,3.301-2.344,2.801
			c-0.404-0.1-0.728,0-1.131,0c-321.72,0-643.52,0-965.158,0c-0.808-9,0.243-18.1-0.485-27c-0.646-8.699,1.293-13.998,7.839-18.998
			c13.172-9.9,21.334-25.299,25.052-43.998c0.89-4.4,1.293-9.1,5.98-10.1c1.212-0.301,1.456-2.4,1.94-3.801
			c2.263-5.799,4.607-11.398,8.97-15.398c9.94-8.801,23.032-5.6,29.335,7.199c1.455,2.9,2.827,5.9,3.879,9.1
			c0.727,2.1,1.697,3.799,3.717,4.1c2.101,0.301,2.748,2.1,3.151,4.5c2.909,19.6,11.153,35.199,23.679,47.398
			c1.212,1.199,2.424,2.199,3.798,3.1c2.424,1.799,4.606,3.4,5.738-1.801c0.404-1.799,2.021-2.799,3.555-3.199
			c1.94-0.5,2.749-1.699,2.749-4.199c-0.082-11.4,0.242-22.799-0.162-34.199c-0.081-3.199-0.323-6.5-1.94-9.4
			c-1.455-2.5,0-4.398,1.456-5.998c2.585-2.801,5.333-5.201,8.081-7.701c12.445-10.998,24.971-21.799,37.417-32.598
			c5.091-4.4,5.819-4.5,10.991,0.199c11.071,10.1,22.466,19.5,33.699,29.5c1.455,1.299,2.748,2.699,4.445,3.6
			c1.05-1.701,0.566-3.4,0.566-5.1c0.081-13.1,0-26.199,0-39.299c0-7.4,1.131-8.801,7.111-8.801c44.286,0,88.492,0,132.778,0
			c6.142,0,7.192,1.301,7.192,9.1c0,18.6,0,37.1,0,55.699c0,6.398,0.646,7.1,5.818,5.5c15.759-5.102,25.214-18,29.659-36.898
			c1.212-4.9,2.021-9.9,2.181-15.1c0.162-10.201,4.931-17.1,11.719-22c9.051-6.699,26.911-7.6,37.336,5.301
			c4.525,5.6,5.818,12.498,6.384,19.898c1.212,14.699,5.091,27.998,14.384,37.998c6.708,7.199,14.547,11,23.355,12.1
			c2.021,0.199,2.748-0.9,2.748-3.1c0-2,0-4.1,0-6.1c-0.081-23.6,0.566-47.098-0.566-70.598c-0.161-6,1.051-12,0.485-17.998
			c-0.323-3.301,1.697-4.3,3.879-4.3c2.425,0,5.253-0.8,6.223,3.4c0.162,0.6,0.081,1.199,0.081,1.9c0.404,8.6,0.404,8.6,7.597,8.6
			c7.354,0,14.626,0,21.98,0c4.931,0,5.334-0.301,4.931-6.4c-0.404-6.301,1.292-8.299,7.677-7.4c1.697,0.3,2.828,1.5,2.667,3.701
			c-0.323,4.799,0.485,9.699,0.242,14.498c-0.323,6.6-0.242,6.801,5.253,6.801c12.769,0,25.457,0,38.225,0
			c1.778,0,3.557-0.1,5.334,0.1c3.556,0.4,4.526,1.699,4.283,5.9c-0.889,16.998,0.082,33.998-0.565,50.998
			c-0.081,2.498,0.808,3.299,2.667,3.398c1.939,0.1,3.798-0.299,5.656-0.4c2.182-0.199,4.283-0.1,5.899,2.201
			c1.293,1.9,2.505,0.9,3.637-0.1c2.586-2.201,5.253-4.4,7.758-6.701c10.264-9.398,20.931-17.998,31.113-27.398
			c5.819-5.299,6.869-5.299,12.688-0.1c14.386,12.898,29.174,25.199,43.478,38.199c2.424,2.199,3.637,4.299,2.344,8.199
			c-1.374,4.299-0.485,5.299,3.232,4.6c17.213-3.5,30.628-21.199,33.457-43.998c0.646-5.4,0.646-10.9,1.293-16.299
			c0.404-3.301,1.212-5.9,4.605-4.9c1.616,0.5,2.263-1,2.909-2.301c3.072-5.299,6.708-9.799,11.477-12.6
			c1.454-0.898,2.343-2.199,2.585-4.299c0.324-3.6,2.183-6.301,3.476-9.299c1.293-3.102,4.202-2.9,5.172,0.398
			c0.969,3.301,3.151,6.1,3.233,9.9c0,2,1.454,2.799,2.747,3.5c4.203,2.6,7.436,6.398,10.102,11.1
			c1.051,1.9,2.102,3.398,4.202,3.199c1.697-0.1,2.991,1.199,3.233,3.301c0.404,3.398,1.374,6.6,1.535,10.1
			c1.131,28.299,15.112,47.896,37.66,52.896c4.93,1.1,5.414,1.801,5.414,7.9c0.081,12.5,0,24.898,0,37.998
			c1.454-1.199,1.94-2.699,2.667-4c9.536-17.998,18.91-36.098,28.689-53.998c0.808-1.398,1.535-2.898,1.535-4.699
			c0-3.299,1.616-4.299,3.96-4.4c12.849-0.199,25.698-0.1,38.547,0c2.506,0,4.041,1.102,3.96,4.701
			c-0.162,3.5,1.454,6.199,2.909,8.998c5.818,11.4,12.203,22.199,17.94,33.6C966.003,141.257,968.104,145.058,969.154,149.558z"/>
	</g>
</g>
<g>
	<g>
		<path fill="#C3CED2" d="M1921.307,149.558c0,15.898-0.08,31.799,0.082,47.797c0,2.301-0.404,3.301-2.344,2.801
			c-0.404-0.1-0.727,0-1.131,0c-321.691,0-643.464,0-965.073,0c-0.808-9,0.242-18.1-0.485-27
			c-0.646-8.699,1.292-13.998,7.838-18.998c13.171-9.9,21.333-25.299,25.05-43.998c0.889-4.4,1.293-9.1,5.979-10.1
			c1.213-0.301,1.455-2.4,1.94-3.801c2.263-5.799,4.605-11.398,8.97-15.398c9.939-8.801,23.029-5.6,29.332,7.199
			c1.455,2.9,2.828,5.9,3.879,9.1c0.728,2.1,1.697,3.799,3.718,4.1c2.101,0.301,2.747,2.1,3.15,4.5
			c2.909,19.6,11.151,35.199,23.677,47.398c1.213,1.199,2.424,2.199,3.798,3.1c2.425,1.799,4.606,3.4,5.737-1.801
			c0.404-1.799,2.021-2.799,3.556-3.199c1.939-0.5,2.747-1.699,2.747-4.199c-0.08-11.4,0.243-22.799-0.162-34.199
			c-0.08-3.199-0.323-6.5-1.938-9.4c-1.455-2.5,0-4.398,1.455-5.998c2.585-2.801,5.333-5.201,8.079-7.701
			c12.445-10.998,24.97-21.799,37.414-32.598c5.091-4.4,5.818-4.5,10.99,0.199c11.07,10.1,22.464,19.5,33.695,29.5
			c1.455,1.299,2.748,2.699,4.445,3.6c1.051-1.701,0.565-3.4,0.565-5.1c0.081-13.1,0-26.199,0-39.299c0-7.4,1.132-8.801,7.11-8.801
			c44.282,0,88.484,0,132.766,0c6.143,0,7.191,1.301,7.191,9.1c0,18.6,0,37.1,0,55.699c0,6.398,0.646,7.1,5.818,5.5
			c15.758-5.102,25.212-18,29.656-36.898c1.213-4.9,2.021-9.9,2.182-15.1c0.162-10.201,4.93-17.1,11.717-22
			c9.051-6.699,26.91-7.6,37.334,5.301c4.524,5.6,5.817,12.498,6.383,19.898c1.213,14.699,5.091,27.998,14.383,37.998
			c6.707,7.199,14.547,11,23.354,12.1c2.021,0.199,2.747-0.9,2.747-3.1c0-2,0-4.1,0-6.1c-0.08-23.6,0.565-47.098-0.566-70.598
			c-0.16-6,1.051-12,0.486-17.998c-0.324-3.301,1.695-4.3,3.878-4.3c2.425,0,5.252-0.8,6.222,3.4c0.162,0.6,0.082,1.199,0.082,1.9
			c0.403,8.6,0.403,8.6,7.595,8.6c7.354,0,14.626,0,21.979,0c4.93,0,5.334-0.301,4.93-6.4c-0.404-6.301,1.293-8.299,7.676-7.4
			c1.697,0.3,2.828,1.5,2.667,3.701c-0.323,4.799,0.485,9.699,0.242,14.498c-0.323,6.6-0.242,6.801,5.253,6.801
			c12.768,0,25.454,0,38.221,0c1.778,0,3.557-0.1,5.334,0.1c3.555,0.4,4.525,1.699,4.282,5.9
			c-0.889,16.998,0.081,33.998-0.565,50.998c-0.081,2.498,0.809,3.299,2.667,3.398c1.938,0.1,3.798-0.299,5.655-0.4
			c2.183-0.199,4.283-0.1,5.9,2.201c1.293,1.9,2.504,0.9,3.636-0.1c2.586-2.201,5.253-4.4,7.757-6.701
			c10.263-9.398,20.93-17.998,31.111-27.398c5.818-5.299,6.868-5.299,12.686-0.1c14.385,12.898,29.172,25.199,43.475,38.199
			c2.424,2.199,3.637,4.299,2.344,8.199c-1.374,4.299-0.484,5.299,3.232,4.6c17.211-3.5,30.625-21.199,33.454-43.998
			c0.646-5.4,0.646-10.9,1.292-16.299c0.404-3.301,1.213-5.9,4.605-4.9c1.617,0.5,2.263-1,2.909-2.301
			c3.071-5.299,6.707-9.799,11.476-12.6c1.454-0.898,2.343-2.199,2.585-4.299c0.323-3.6,2.183-6.301,3.475-9.299
			c1.294-3.102,4.202-2.9,5.173,0.398c0.969,3.301,3.15,6.1,3.232,9.9c0,2,1.454,2.799,2.746,3.5c4.203,2.6,7.436,6.398,10.102,11.1
			c1.051,1.9,2.102,3.398,4.201,3.199c1.697-0.1,2.99,1.199,3.232,3.301c0.404,3.398,1.375,6.6,1.535,10.1
			c1.132,28.299,15.111,47.896,37.656,52.896c4.93,1.1,5.414,1.801,5.414,7.9c0.081,12.5,0,24.898,0,37.998
			c1.454-1.199,1.939-2.699,2.666-4c9.535-17.998,18.909-36.098,28.688-53.998c0.808-1.398,1.535-2.898,1.535-4.699
			c0-3.299,1.615-4.299,3.959-4.4c12.85-0.199,25.697-0.1,38.545,0c2.506,0,4.04,1.102,3.959,4.701
			c-0.161,3.5,1.455,6.199,2.909,8.998c5.819,11.4,12.202,22.199,17.939,33.6C1918.156,141.257,1920.256,145.058,1921.307,149.558z"
			/>
	</g>
</g>
<rect x="1" y="195.909" fill="#C3CED2" width="1920" height="91"/>
</svg>
